<mxfile host="Electron" agent="Mozilla/5.0 (Macintosh; Intel Mac OS X 10_15_7) AppleWebKit/537.36 (KHTML, like Gecko) draw.io/24.7.8 Chrome/128.0.6613.36 Electron/32.0.1 Safari/537.36" version="24.7.8">
  <diagram name="Page-1" id="-ehb57aW6UEDHXnUAXF-">
    <mxGraphModel dx="4027" dy="2055" grid="1" gridSize="10" guides="1" tooltips="1" connect="1" arrows="1" fold="1" page="0" pageScale="1" pageWidth="850" pageHeight="1100" math="0" shadow="0">
      <root>
        <mxCell id="0" />
        <mxCell id="1" parent="0" />
        <mxCell id="ACQYEu1lNiYWw1dpZs43-119" style="edgeStyle=none;curved=1;rounded=0;orthogonalLoop=1;jettySize=auto;html=1;strokeColor=#FF6392;fontSize=12;fontColor=#5AA9E6;startSize=8;endSize=8;fillColor=#FFE45E;" edge="1" parent="1">
          <mxGeometry relative="1" as="geometry">
            <mxPoint x="-858" y="-200.89" as="targetPoint" />
            <mxPoint x="-1720" y="-316.652486126526" as="sourcePoint" />
          </mxGeometry>
        </mxCell>
        <mxCell id="ACQYEu1lNiYWw1dpZs43-115" value="" style="sketch=0;outlineConnect=0;fontColor=#232F3E;gradientColor=none;fillColor=#232F3D;strokeColor=none;dashed=0;verticalLabelPosition=bottom;verticalAlign=top;align=center;html=1;fontSize=12;fontStyle=0;aspect=fixed;pointerEvents=1;shape=mxgraph.aws4.users;" vertex="1" parent="1">
          <mxGeometry x="-1770" y="-380" width="78" height="78" as="geometry" />
        </mxCell>
        <UserObject label="" tooltip="Send request to Static IP of ELB" id="ACQYEu1lNiYWw1dpZs43-118">
          <mxCell style="edgeStyle=none;curved=1;rounded=0;orthogonalLoop=1;jettySize=auto;html=1;strokeColor=#FF6392;fontSize=12;fontColor=#5AA9E6;startSize=8;endSize=8;fillColor=#FFE45E;" edge="1" parent="1">
            <mxGeometry relative="1" as="geometry">
              <mxPoint x="-858" y="-200.89" as="targetPoint" />
              <mxPoint x="-1720" y="-220.9810099889013" as="sourcePoint" />
            </mxGeometry>
          </mxCell>
        </UserObject>
        <mxCell id="ACQYEu1lNiYWw1dpZs43-116" value="" style="sketch=0;outlineConnect=0;fontColor=#232F3E;gradientColor=none;fillColor=#232F3D;strokeColor=none;dashed=0;verticalLabelPosition=bottom;verticalAlign=top;align=center;html=1;fontSize=12;fontStyle=0;aspect=fixed;pointerEvents=1;shape=mxgraph.aws4.users;" vertex="1" parent="1">
          <mxGeometry x="-1770" y="-280" width="78" height="78" as="geometry" />
        </mxCell>
        <mxCell id="ACQYEu1lNiYWw1dpZs43-120" style="edgeStyle=none;curved=1;rounded=0;orthogonalLoop=1;jettySize=auto;html=1;strokeColor=#FF6392;fontSize=12;fontColor=#5AA9E6;startSize=8;endSize=8;fillColor=#FFE45E;" edge="1" parent="1">
          <mxGeometry relative="1" as="geometry">
            <mxPoint x="-868" y="-200.89" as="targetPoint" />
            <mxPoint x="-1720" y="-125.34791245791247" as="sourcePoint" />
          </mxGeometry>
        </mxCell>
        <mxCell id="ACQYEu1lNiYWw1dpZs43-117" value="" style="sketch=0;outlineConnect=0;fontColor=#232F3E;gradientColor=none;fillColor=#232F3D;strokeColor=none;dashed=0;verticalLabelPosition=bottom;verticalAlign=top;align=center;html=1;fontSize=12;fontStyle=0;aspect=fixed;pointerEvents=1;shape=mxgraph.aws4.users;" vertex="1" parent="1">
          <mxGeometry x="-1770" y="-180" width="78" height="78" as="geometry" />
        </mxCell>
        <UserObject label="" tooltip="ELB" id="ACQYEu1lNiYWw1dpZs43-121">
          <mxCell style="outlineConnect=0;dashed=0;verticalLabelPosition=bottom;verticalAlign=top;align=center;html=1;shape=mxgraph.aws3.elastic_load_balancing;fillColor=#F58534;gradientColor=none;strokeColor=#FF6392;fontColor=#5AA9E6;" vertex="1" parent="1">
            <mxGeometry x="-838" y="-250.89" width="76.5" height="93" as="geometry" />
          </mxCell>
        </UserObject>
        <mxCell id="ACQYEu1lNiYWw1dpZs43-158" style="edgeStyle=none;curved=1;rounded=0;orthogonalLoop=1;jettySize=auto;html=1;strokeColor=#FF6392;fontSize=12;fontColor=#5AA9E6;startSize=8;endSize=8;fillColor=#FFE45E;" edge="1" parent="1" source="ACQYEu1lNiYWw1dpZs43-122">
          <mxGeometry relative="1" as="geometry">
            <mxPoint x="-375.5" y="-460" as="targetPoint" />
          </mxGeometry>
        </mxCell>
        <UserObject label="" tooltip="Auto Scaling Group" id="ACQYEu1lNiYWw1dpZs43-122">
          <mxCell style="outlineConnect=0;dashed=0;verticalLabelPosition=bottom;verticalAlign=top;align=center;html=1;shape=mxgraph.aws3.network_access_controllist;fillColor=#F58534;gradientColor=none;strokeColor=#FF6392;fontColor=#5AA9E6;" vertex="1" parent="1">
            <mxGeometry x="-410" y="-239.5" width="69" height="72" as="geometry" />
          </mxCell>
        </UserObject>
        <mxCell id="ACQYEu1lNiYWw1dpZs43-123" style="edgeStyle=none;curved=1;rounded=0;orthogonalLoop=1;jettySize=auto;html=1;entryX=0;entryY=0.5;entryDx=0;entryDy=0;entryPerimeter=0;strokeColor=#FF6392;fontSize=12;fontColor=#5AA9E6;startSize=8;endSize=8;fillColor=#FFE45E;" edge="1" parent="1" source="ACQYEu1lNiYWw1dpZs43-121" target="ACQYEu1lNiYWw1dpZs43-122">
          <mxGeometry relative="1" as="geometry" />
        </mxCell>
        <mxCell id="ACQYEu1lNiYWw1dpZs43-130" style="edgeStyle=none;curved=1;rounded=0;orthogonalLoop=1;jettySize=auto;html=1;strokeColor=#FF6392;fontSize=12;fontColor=#5AA9E6;startSize=8;endSize=8;fillColor=#FFE45E;" edge="1" parent="1" target="ACQYEu1lNiYWw1dpZs43-129">
          <mxGeometry relative="1" as="geometry">
            <mxPoint x="-203.49999999999955" y="28.285714285714675" as="sourcePoint" />
          </mxGeometry>
        </mxCell>
        <mxCell id="ACQYEu1lNiYWw1dpZs43-135" style="edgeStyle=none;curved=1;rounded=0;orthogonalLoop=1;jettySize=auto;html=1;strokeColor=#FF6392;fontSize=12;fontColor=#5AA9E6;startSize=8;endSize=8;fillColor=#FFE45E;" edge="1" parent="1" target="ACQYEu1lNiYWw1dpZs43-134">
          <mxGeometry relative="1" as="geometry">
            <mxPoint x="-280" y="74.70724729815674" as="sourcePoint" />
          </mxGeometry>
        </mxCell>
        <mxCell id="ACQYEu1lNiYWw1dpZs43-131" style="edgeStyle=none;curved=1;rounded=0;orthogonalLoop=1;jettySize=auto;html=1;strokeColor=#FF6392;fontSize=12;fontColor=#5AA9E6;startSize=8;endSize=8;fillColor=#FFE45E;" edge="1" parent="1" source="ACQYEu1lNiYWw1dpZs43-125" target="ACQYEu1lNiYWw1dpZs43-129">
          <mxGeometry relative="1" as="geometry" />
        </mxCell>
        <mxCell id="ACQYEu1lNiYWw1dpZs43-136" style="edgeStyle=none;curved=1;rounded=0;orthogonalLoop=1;jettySize=auto;html=1;strokeColor=#FF6392;fontSize=12;fontColor=#5AA9E6;startSize=8;endSize=8;fillColor=#FFE45E;" edge="1" parent="1" source="ACQYEu1lNiYWw1dpZs43-125">
          <mxGeometry relative="1" as="geometry">
            <mxPoint x="-600" y="320" as="targetPoint" />
          </mxGeometry>
        </mxCell>
        <UserObject label="" tooltip="EC2 - 2" id="ACQYEu1lNiYWw1dpZs43-125">
          <mxCell style="outlineConnect=0;dashed=0;verticalLabelPosition=bottom;verticalAlign=top;align=center;html=1;shape=mxgraph.aws3.ec2;fillColor=#F58534;gradientColor=none;strokeColor=#FF6392;fontColor=#5AA9E6;" vertex="1" parent="1">
            <mxGeometry x="-280" y="160.5" width="76.5" height="93" as="geometry" />
          </mxCell>
        </UserObject>
        <mxCell id="ACQYEu1lNiYWw1dpZs43-127" style="edgeStyle=none;curved=1;rounded=0;orthogonalLoop=1;jettySize=auto;html=1;entryX=0;entryY=0.5;entryDx=0;entryDy=0;entryPerimeter=0;strokeColor=#FF6392;fontSize=12;fontColor=#5AA9E6;startSize=8;endSize=8;fillColor=#FFE45E;" edge="1" parent="1" source="ACQYEu1lNiYWw1dpZs43-122" target="ACQYEu1lNiYWw1dpZs43-125">
          <mxGeometry relative="1" as="geometry" />
        </mxCell>
        <mxCell id="ACQYEu1lNiYWw1dpZs43-129" value="" style="sketch=0;outlineConnect=0;fontColor=#232F3E;gradientColor=none;fillColor=#C925D1;strokeColor=none;dashed=0;verticalLabelPosition=bottom;verticalAlign=top;align=center;html=1;fontSize=12;fontStyle=0;aspect=fixed;pointerEvents=1;shape=mxgraph.aws4.rds_instance;" vertex="1" parent="1">
          <mxGeometry x="260" y="-250" width="78" height="78" as="geometry" />
        </mxCell>
        <mxCell id="ACQYEu1lNiYWw1dpZs43-134" value="" style="outlineConnect=0;dashed=0;verticalLabelPosition=bottom;verticalAlign=top;align=center;html=1;shape=mxgraph.aws3.sqs;fillColor=#D9A741;gradientColor=none;strokeColor=#FF6392;fontColor=#5AA9E6;" vertex="1" parent="1">
          <mxGeometry x="-680" y="290" width="90" height="93" as="geometry" />
        </mxCell>
        <mxCell id="ACQYEu1lNiYWw1dpZs43-146" style="edgeStyle=none;curved=1;rounded=0;orthogonalLoop=1;jettySize=auto;html=1;strokeColor=#FF6392;fontSize=12;fontColor=#5AA9E6;startSize=8;endSize=8;fillColor=#FFE45E;" edge="1" parent="1" source="ACQYEu1lNiYWw1dpZs43-137">
          <mxGeometry relative="1" as="geometry">
            <mxPoint x="-640" y="390" as="targetPoint" />
          </mxGeometry>
        </mxCell>
        <UserObject label="" tooltip="EC2 1" id="ACQYEu1lNiYWw1dpZs43-137">
          <mxCell style="outlineConnect=0;dashed=0;verticalLabelPosition=bottom;verticalAlign=top;align=center;html=1;shape=mxgraph.aws3.ec2;fillColor=#F58534;gradientColor=none;strokeColor=#FF6392;fontColor=#5AA9E6;" vertex="1" parent="1">
            <mxGeometry x="-580" y="729.5" width="76.5" height="93" as="geometry" />
          </mxCell>
        </UserObject>
        <mxCell id="ACQYEu1lNiYWw1dpZs43-145" style="edgeStyle=none;curved=1;rounded=0;orthogonalLoop=1;jettySize=auto;html=1;strokeColor=#FF6392;fontSize=12;fontColor=#5AA9E6;startSize=8;endSize=8;fillColor=#FFE45E;" edge="1" parent="1" source="ACQYEu1lNiYWw1dpZs43-138" target="ACQYEu1lNiYWw1dpZs43-134">
          <mxGeometry relative="1" as="geometry" />
        </mxCell>
        <UserObject label="" tooltip="EC2 - 2" id="ACQYEu1lNiYWw1dpZs43-138">
          <mxCell style="outlineConnect=0;dashed=0;verticalLabelPosition=bottom;verticalAlign=top;align=center;html=1;shape=mxgraph.aws3.ec2;fillColor=#F58534;gradientColor=none;strokeColor=#FF6392;fontColor=#5AA9E6;" vertex="1" parent="1">
            <mxGeometry x="-760" y="720" width="76.5" height="93" as="geometry" />
          </mxCell>
        </UserObject>
        <mxCell id="ACQYEu1lNiYWw1dpZs43-147" style="edgeStyle=none;curved=1;rounded=0;orthogonalLoop=1;jettySize=auto;html=1;strokeColor=#FF6392;fontSize=12;fontColor=#5AA9E6;startSize=8;endSize=8;fillColor=#FFE45E;" edge="1" parent="1" source="ACQYEu1lNiYWw1dpZs43-139">
          <mxGeometry relative="1" as="geometry">
            <mxPoint x="-640" y="390" as="targetPoint" />
          </mxGeometry>
        </mxCell>
        <UserObject label="" tooltip="EC2 1" id="ACQYEu1lNiYWw1dpZs43-139">
          <mxCell style="outlineConnect=0;dashed=0;verticalLabelPosition=bottom;verticalAlign=top;align=center;html=1;shape=mxgraph.aws3.ec2;fillColor=#F58534;gradientColor=none;strokeColor=#FF6392;fontColor=#5AA9E6;" vertex="1" parent="1">
            <mxGeometry x="-400" y="729.5" width="76.5" height="93" as="geometry" />
          </mxCell>
        </UserObject>
        <mxCell id="ACQYEu1lNiYWw1dpZs43-144" style="edgeStyle=none;curved=1;rounded=0;orthogonalLoop=1;jettySize=auto;html=1;strokeColor=#FF6392;fontSize=12;fontColor=#5AA9E6;startSize=8;endSize=8;fillColor=#FFE45E;" edge="1" parent="1" source="ACQYEu1lNiYWw1dpZs43-140" target="ACQYEu1lNiYWw1dpZs43-134">
          <mxGeometry relative="1" as="geometry" />
        </mxCell>
        <UserObject label="" tooltip="EC2 - 2" id="ACQYEu1lNiYWw1dpZs43-140">
          <mxCell style="outlineConnect=0;dashed=0;verticalLabelPosition=bottom;verticalAlign=top;align=center;html=1;shape=mxgraph.aws3.ec2;fillColor=#F58534;gradientColor=none;strokeColor=#FF6392;fontColor=#5AA9E6;" vertex="1" parent="1">
            <mxGeometry x="-920" y="720" width="76.5" height="93" as="geometry" />
          </mxCell>
        </UserObject>
        <mxCell id="ACQYEu1lNiYWw1dpZs43-149" style="edgeStyle=none;curved=1;rounded=0;orthogonalLoop=1;jettySize=auto;html=1;strokeColor=#FF6392;fontSize=12;fontColor=#5AA9E6;startSize=8;endSize=8;fillColor=#FFE45E;" edge="1" parent="1" source="ACQYEu1lNiYWw1dpZs43-148">
          <mxGeometry relative="1" as="geometry">
            <mxPoint x="-690" y="346.5000000000002" as="targetPoint" />
          </mxGeometry>
        </mxCell>
        <mxCell id="ACQYEu1lNiYWw1dpZs43-153" style="edgeStyle=none;curved=1;rounded=0;orthogonalLoop=1;jettySize=auto;html=1;strokeColor=#FF6392;fontSize=12;fontColor=#5AA9E6;startSize=8;endSize=8;fillColor=#FFE45E;" edge="1" parent="1" source="ACQYEu1lNiYWw1dpZs43-148" target="ACQYEu1lNiYWw1dpZs43-151">
          <mxGeometry relative="1" as="geometry" />
        </mxCell>
        <mxCell id="ACQYEu1lNiYWw1dpZs43-148" value="" style="outlineConnect=0;dashed=0;verticalLabelPosition=bottom;verticalAlign=top;align=center;html=1;shape=mxgraph.aws3.cloudwatch;fillColor=#759C3E;gradientColor=none;strokeColor=#FF6392;fontColor=#5AA9E6;" vertex="1" parent="1">
          <mxGeometry x="-1250" y="300" width="82.5" height="93" as="geometry" />
        </mxCell>
        <UserObject label="" tooltip="Cloud Watch Alarm" id="ACQYEu1lNiYWw1dpZs43-151">
          <mxCell style="html=1;verticalLabelPosition=bottom;align=center;labelBackgroundColor=#ffffff;verticalAlign=top;strokeWidth=2;strokeColor=#0080F0;shadow=0;dashed=0;shape=mxgraph.ios7.icons.bell;fontColor=#5AA9E6;fillColor=#FFE45E;" vertex="1" parent="1">
            <mxGeometry x="-1265.75" y="10" width="114" height="113.05" as="geometry" />
          </mxCell>
        </UserObject>
        <mxCell id="ACQYEu1lNiYWw1dpZs43-155" value="" style="outlineConnect=0;dashed=0;verticalLabelPosition=bottom;verticalAlign=top;align=center;html=1;shape=mxgraph.aws3.ec2;fillColor=#F58534;gradientColor=none;strokeColor=#FF6392;fontColor=#5AA9E6;" vertex="1" parent="1">
          <mxGeometry x="-413.75" y="-560" width="76.5" height="90" as="geometry" />
        </mxCell>
        <mxCell id="ACQYEu1lNiYWw1dpZs43-157" style="edgeStyle=none;curved=1;rounded=0;orthogonalLoop=1;jettySize=auto;html=1;entryX=0.145;entryY=0.85;entryDx=0;entryDy=0;entryPerimeter=0;strokeColor=#FF6392;fontSize=12;fontColor=#5AA9E6;startSize=8;endSize=8;fillColor=#FFE45E;" edge="1" parent="1" source="ACQYEu1lNiYWw1dpZs43-151" target="ACQYEu1lNiYWw1dpZs43-122">
          <mxGeometry relative="1" as="geometry" />
        </mxCell>
        <mxCell id="ACQYEu1lNiYWw1dpZs43-159" style="edgeStyle=none;curved=1;rounded=0;orthogonalLoop=1;jettySize=auto;html=1;entryX=0;entryY=0.5;entryDx=0;entryDy=0;entryPerimeter=0;strokeColor=#FF6392;fontSize=12;fontColor=#5AA9E6;startSize=8;endSize=8;fillColor=#FFE45E;" edge="1" parent="1" source="ACQYEu1lNiYWw1dpZs43-121" target="ACQYEu1lNiYWw1dpZs43-155">
          <mxGeometry relative="1" as="geometry" />
        </mxCell>
      </root>
    </mxGraphModel>
  </diagram>
</mxfile>
